<svg xmlns="http://www.w3.org/2000/svg" viewBox="0 0 53.196 70.16">
  <g id="_002-medal" data-name="002-medal" transform="translate(-61.898)">
    <g id="Group_55" data-name="Group 55" transform="translate(68.473 6.589)">
      <g id="Group_54" data-name="Group 54" transform="translate(0)">
        <path id="Path_37" data-name="Path 37" d="M138.858,50.235A19.98,19.98,0,0,0,114.07,80.32a1.106,1.106,0,0,0,1.745-1.358,17.769,17.769,0,0,1,22.046-26.754,1.106,1.106,0,1,0,1-1.974Z" transform="translate(-109.878 -48.082)"/>
      </g>
    </g>
    <g id="Group_57" data-name="Group 57" transform="translate(75.767 16.965)">
      <g id="Group_56" data-name="Group 56" transform="translate(0)">
        <path id="Path_38" data-name="Path 38" d="M193.623,124.414a1.106,1.106,0,0,0-1.974,1,17.769,17.769,0,0,1-26.755,22.042,1.106,1.106,0,1,0-1.358,1.745,19.98,19.98,0,0,0,30.087-24.784Z" transform="translate(-163.109 -123.806)"/>
      </g>
    </g>
    <g id="Group_59" data-name="Group 59" transform="translate(99.822 11.319)">
      <g id="Group_58" data-name="Group 58" transform="translate(0)">
        <path id="Path_39" data-name="Path 39" d="M342.25,84.647c-.274-.31-.562-.616-.855-.91s-.6-.581-.91-.855a1.106,1.106,0,0,0-1.465,1.657c.276.244.549.5.811.762s.518.534.762.81a1.106,1.106,0,0,0,1.657-1.464Z" transform="translate(-338.647 -82.605)"/>
      </g>
    </g>
    <g id="Group_61" data-name="Group 61" transform="translate(61.898 0)">
      <g id="Group_60" data-name="Group 60" transform="translate(0 0)">
        <path id="Path_40" data-name="Path 40" d="M114.541,28.559a3.752,3.752,0,0,0,0-3.921l-1.455-2.385a1.556,1.556,0,0,1-.208-1.051l.434-2.755a3.75,3.75,0,0,0-1.5-3.631l-2.254-1.64a1.557,1.557,0,0,1-.6-.892L108.3,9.571A3.751,3.751,0,0,0,105.525,6.8l-2.713-.657a1.556,1.556,0,0,1-.892-.6l-1.64-2.255a3.75,3.75,0,0,0-3.631-1.505l-2.756.434a1.556,1.556,0,0,1-1.051-.208L90.457.553a3.752,3.752,0,0,0-3.921,0L84.15,2.008a1.556,1.556,0,0,1-1.051.208l-2.755-.434a3.751,3.751,0,0,0-3.631,1.505l-1.64,2.254a1.557,1.557,0,0,1-.892.6l-2.713.657a3.751,3.751,0,0,0-2.775,2.774l-.657,2.713a1.555,1.555,0,0,1-.6.892l-2.255,1.64a3.75,3.75,0,0,0-1.505,3.631l.434,2.756a1.556,1.556,0,0,1-.208,1.051l-1.455,2.386a3.752,3.752,0,0,0,0,3.921l1.455,2.385A1.556,1.556,0,0,1,64.114,32l-.434,2.755a3.75,3.75,0,0,0,1.5,3.631l2.254,1.64a1.556,1.556,0,0,1,.6.892l.657,2.713A3.751,3.751,0,0,0,71.467,46.4l1.133.274-7.667,17.1a1.106,1.106,0,0,0,1.14,1.55l6.169-.738,3.554,5.1a1.106,1.106,0,0,0,.907.473c.034,0,.069,0,.1,0a1.106,1.106,0,0,0,.906-.648l7.831-17.469.992.6a3.752,3.752,0,0,0,3.921,0l1.028-.627,7.841,17.49a1.105,1.105,0,0,0,.906.648c.035,0,.069,0,.1,0a1.106,1.106,0,0,0,.907-.473l3.554-5.1,6.169.738a1.106,1.106,0,0,0,1.14-1.55l-7.671-17.113,1.09-.264a3.751,3.751,0,0,0,2.775-2.774l.657-2.713a1.556,1.556,0,0,1,.6-.892l2.255-1.64a3.75,3.75,0,0,0,1.505-3.631L112.878,32a1.556,1.556,0,0,1,.208-1.051ZM76.493,66.82l-2.817-4.039a1.105,1.105,0,0,0-1.038-.465L67.75,62.9l6.986-15.584a1.546,1.546,0,0,1,.337.336l1.64,2.255a3.8,3.8,0,0,0,.522.581l-3.677,8.2a1.106,1.106,0,1,0,2.018.9l3.664-8.173a3.784,3.784,0,0,0,1.1-.01L83.1,50.98a1.552,1.552,0,0,1,.494,0Zm32.8-3.92-4.889-.584a1.1,1.1,0,0,0-1.038.465l-2.817,4.039-7.1-15.844a1.557,1.557,0,0,1,.451,0l2.755.434a3.787,3.787,0,0,0,1.148,0l3.667,8.18a1.106,1.106,0,1,0,2.018-.9L99.79,50.459a3.805,3.805,0,0,0,.489-.55l1.64-2.254a1.552,1.552,0,0,1,.372-.362Zm3.365-35.493L111.2,29.793a3.771,3.771,0,0,0-.5,2.546l.434,2.756a1.548,1.548,0,0,1-.621,1.5l-2.255,1.64a3.77,3.77,0,0,0-1.445,2.16l-.657,2.713A1.549,1.549,0,0,1,105,44.252l-2.713.657a3.77,3.77,0,0,0-2.16,1.445l-1.64,2.254a1.548,1.548,0,0,1-1.5.621L94.237,48.8a3.771,3.771,0,0,0-2.546.5l-2.385,1.455a1.549,1.549,0,0,1-1.619,0L85.3,49.3a3.769,3.769,0,0,0-2.546-.5L80,49.229a1.548,1.548,0,0,1-1.5-.621l-1.64-2.255a3.77,3.77,0,0,0-2.16-1.445l-2.713-.657a1.549,1.549,0,0,1-1.145-1.145l-.657-2.713a3.77,3.77,0,0,0-1.445-2.16l-2.254-1.64a1.548,1.548,0,0,1-.621-1.5l.434-2.755a3.77,3.77,0,0,0-.5-2.546l-1.455-2.386a1.549,1.549,0,0,1,0-1.619L65.794,23.4a3.77,3.77,0,0,0,.5-2.546L65.865,18.1a1.548,1.548,0,0,1,.621-1.5l2.255-1.64a3.77,3.77,0,0,0,1.445-2.16l.657-2.713a1.549,1.549,0,0,1,1.145-1.145L74.7,8.287a3.769,3.769,0,0,0,2.16-1.445L78.5,4.588A1.548,1.548,0,0,1,80,3.967l2.755.434A3.769,3.769,0,0,0,85.3,3.9l2.385-1.455a1.549,1.549,0,0,1,1.619,0L91.691,3.9a3.769,3.769,0,0,0,2.546.5l2.756-.434a1.549,1.549,0,0,1,1.5.621l1.64,2.255a3.77,3.77,0,0,0,2.16,1.445L105,8.945a1.549,1.549,0,0,1,1.145,1.145l.657,2.713a3.77,3.77,0,0,0,1.445,2.16l2.254,1.64a1.548,1.548,0,0,1,.621,1.5l-.434,2.755a3.77,3.77,0,0,0,.5,2.546l1.455,2.386A1.549,1.549,0,0,1,112.653,27.407Z" transform="translate(-61.898 0)"/>
      </g>
    </g>
    <g id="Group_63" data-name="Group 63" transform="translate(75.458 13.758)">
      <g id="Group_62" data-name="Group 62">
        <path id="Path_41" data-name="Path 41" d="M186.826,109.8a1.978,1.978,0,0,0-1.665-1.367l-6.653-.789-2.806-6.084a2,2,0,0,0-3.629,0l-2.806,6.084-6.653.789a2,2,0,0,0-1.121,3.451l4.919,4.549L165.106,123a2,2,0,0,0,1.957,2.391,2,2,0,0,0,.978-.258l5.846-3.272,5.846,3.272A2,2,0,0,0,182.669,123l-1.306-6.571,4.919-4.549A1.978,1.978,0,0,0,186.826,109.8Zm-7.418,5.43a1.106,1.106,0,0,0-.334,1.027l1.336,6.724-5.983-3.349a1.106,1.106,0,0,0-1.08,0l-5.983,3.349,1.336-6.724a1.1,1.1,0,0,0-.334-1.027l-5.033-4.655,6.809-.807a1.106,1.106,0,0,0,.874-.635l2.872-6.226,2.872,6.226a1.106,1.106,0,0,0,.874.635l6.808.807Z" transform="translate(-160.849 -100.398)"/>
      </g>
    </g>
  </g>
</svg>
