<svg xmlns="http://www.w3.org/2000/svg" viewBox="0 0 63.541 67.579">
  <g id="_001-stopwatch" data-name="001-stopwatch" transform="translate(-1.793)">
    <path id="Path_29" data-name="Path 29" d="M32.119,40.009a4.008,4.008,0,0,0,2.935-1.643L45.6,23.786a1.127,1.127,0,0,0-1.573-1.573L29.445,32.762A4.014,4.014,0,0,0,31.8,40.021C31.909,40.021,32.013,40.017,32.119,40.009Zm-2.068-4.138a1.758,1.758,0,0,1,.717-1.286l8.895-6.435-6.432,8.892a1.76,1.76,0,0,1-3.18-1.171Z" transform="translate(3.284 2.779)"/>
    <path id="Path_30" data-name="Path 30" d="M57.854,22.035c-.011-.024-.011-.048-.024-.072s-.035-.035-.05-.056a30.619,30.619,0,0,0-4.015-5.416l2.419-2.418,1.593,1.593,4.778-4.779L57.777,6.108,53,10.886l1.594,1.594L52.173,14.9a30.584,30.584,0,0,0-5.416-4.016c-.021-.015-.034-.036-.056-.05s-.048-.012-.072-.025A30.2,30.2,0,0,0,35.057,6.973V5.632h1.689a2.816,2.816,0,1,0,0-5.632H26.609a2.816,2.816,0,0,0,0,5.632H28.3v1.3a30.979,30.979,0,0,0-3.631.6,1.126,1.126,0,0,0,.5,2.2A28.643,28.643,0,0,1,28.3,9.194L29.51,9.1c.369-.028.71-.048,1.041-.064v2.227a1.126,1.126,0,1,0,2.253,0V9.044a27.938,27.938,0,0,1,11.777,3.2L43.47,14.171A1.126,1.126,0,1,0,45.421,15.3l1.107-1.918a28.376,28.376,0,0,1,8.754,8.754L53.363,23.24a1.127,1.127,0,0,0,1.129,1.951l1.923-1.111a27.954,27.954,0,0,1,3.209,11.96H57.4a1.126,1.126,0,1,0,0,2.253h2.224a27.955,27.955,0,0,1-3.209,11.96l-1.923-1.111a1.126,1.126,0,0,0-1.126,1.951L55.284,52.2a28.376,28.376,0,0,1-8.754,8.754l-1.107-1.918a1.126,1.126,0,0,0-1.951,1.126l1.111,1.923a27.938,27.938,0,0,1-11.777,3.2V63.074a1.126,1.126,0,0,0-2.253,0V65.3a28.422,28.422,0,0,1-5.379-.695,1.126,1.126,0,1,0-.5,2.2,30.434,30.434,0,0,0,6.823.779c.055,0,.108,0,.163,0,.008,0,.014,0,.02,0s.017-.006.026-.006a30.214,30.214,0,0,0,14.889-4.024.954.954,0,0,0,.106-.044c.023-.014.035-.035.056-.05A30.633,30.633,0,0,0,57.762,52.462a1.066,1.066,0,0,0,.068-.088c.014-.024.012-.048.024-.072a30.293,30.293,0,0,0,0-30.266ZM57.776,9.293l1.593,1.593L57.776,12.48l-1.594-1.594ZM30.551,6.782v-3.4H26.609a.563.563,0,0,1,0-1.126H36.746a.563.563,0,1,1,0,1.126H32.8v3.4c-.392-.016-.766-.024-1.126-.024l-.1,0-.084,0c-.185,0-.369.012-.554.016C30.809,6.777,30.686,6.776,30.551,6.782Z" transform="translate(2.779)"/>
    <path id="Path_31" data-name="Path 31" d="M22.551,14H16.919a1.126,1.126,0,0,0,0,2.253h5.632a1.126,1.126,0,0,0,0-2.253Z" transform="translate(1.768 1.768)"/>
    <path id="Path_32" data-name="Path 32" d="M23.183,21H11.919a1.126,1.126,0,1,0,0,2.253H23.183a1.126,1.126,0,0,0,0-2.253Z" transform="translate(1.137 2.653)"/>
    <path id="Path_33" data-name="Path 33" d="M23.814,28H6.919a1.126,1.126,0,0,0,0,2.253H23.814a1.126,1.126,0,0,0,0-2.253Z" transform="translate(0.505 3.537)"/>
    <path id="Path_34" data-name="Path 34" d="M24.319,35H2.919a1.126,1.126,0,1,0,0,2.253h21.4a1.126,1.126,0,1,0,0-2.253Z" transform="translate(0 4.421)"/>
    <path id="Path_35" data-name="Path 35" d="M23.561,42H8.919a1.126,1.126,0,1,0,0,2.253H23.561a1.126,1.126,0,1,0,0-2.253Z" transform="translate(0.758 5.305)"/>
    <path id="Path_36" data-name="Path 36" d="M22.8,49H14.919a1.126,1.126,0,1,0,0,2.253H22.8A1.126,1.126,0,1,0,22.8,49Z" transform="translate(1.516 6.19)"/>
  </g>
</svg>
