<svg xmlns="http://www.w3.org/2000/svg" viewBox="0 0 54.961 67">
  <g id="_003-worker" data-name="003-worker" transform="translate(-46)">
    <g id="Group_65" data-name="Group 65" transform="translate(85.258 56.139)">
      <g id="Group_64" data-name="Group 64">
        <path id="Path_42" data-name="Path 42" d="M347.309,429a1.309,1.309,0,1,0,1.309,1.309A1.309,1.309,0,0,0,347.309,429Z" transform="translate(-346 -429)"/>
      </g>
    </g>
    <g id="Group_67" data-name="Group 67" transform="translate(59.086 56.139)">
      <g id="Group_66" data-name="Group 66">
        <path id="Path_43" data-name="Path 43" d="M147.309,429a1.309,1.309,0,1,0,1.309,1.309A1.309,1.309,0,0,0,147.309,429Z" transform="translate(-146 -429)"/>
      </g>
    </g>
    <g id="Group_69" data-name="Group 69" transform="translate(46)">
      <g id="Group_68" data-name="Group 68" transform="translate(0)">
        <path id="Path_44" data-name="Path 44" d="M98.559,49.361A14.788,14.788,0,0,0,92.69,44.1a1.3,1.3,0,0,0-.743-.342,13.689,13.689,0,0,0-5.381-1.1H82.641V39.208a15.011,15.011,0,0,0,4.7-7.409h.537a5.231,5.231,0,0,0,3.844-8.782c.082-.07.163-.143.24-.22a3.924,3.924,0,0,0-1.512-6.492,14.444,14.444,0,0,0-10.5-12.771A4.164,4.164,0,0,0,76.1,0H70.863a4.164,4.164,0,0,0-3.849,3.534,14.444,14.444,0,0,0-10.5,12.77,3.924,3.924,0,0,0-1.271,6.712A5.231,5.231,0,0,0,59.086,31.8h.534a15.042,15.042,0,0,0,3.663,6.429c.329.343.677.669,1.037.979V42.66H60.395a13.69,13.69,0,0,0-5.381,1.1,1.3,1.3,0,0,0-.743.342A14.993,14.993,0,0,0,46,57.447v8.244A1.309,1.309,0,0,0,47.309,67H99.652a1.309,1.309,0,0,0,1.309-1.309V57.447A14.878,14.878,0,0,0,98.559,49.361ZM53.852,64.383H48.617V57.447a12.5,12.5,0,0,1,5.234-10.06Zm34.023-35.2h-.06c.039-.435.06-.872.06-1.309V23.947a2.617,2.617,0,0,1,0,5.234ZM66.938,6.3v5.87a1.309,1.309,0,1,0,2.617,0V4.318c0-.811.685-1.7,1.309-1.7H76.1c.624,0,1.309.89,1.309,1.7V12.17a1.309,1.309,0,1,0,2.617,0V6.3A11.829,11.829,0,0,1,87.8,16.1H59.159A11.829,11.829,0,0,1,66.938,6.3ZM59.086,29.182a2.617,2.617,0,0,1,0-5.234v3.926c0,.436.021.873.06,1.309Zm0-7.852H57.777a1.309,1.309,0,0,1,0-2.617H89.184a1.309,1.309,0,0,1,0,2.617h-30.1Zm2.855,8.922c0-.014-.005-.028-.008-.042a12.07,12.07,0,0,1-.23-2.337V23.947H85.258v3.926a12.074,12.074,0,0,1-.23,2.336c0,.014-.006.028-.008.043a12.4,12.4,0,0,1-4.56,7.36,11.235,11.235,0,0,1-13.961,0,12.127,12.127,0,0,1-1.328-1.194A12.409,12.409,0,0,1,61.941,30.252Zm10.231,34.13H61.7v-3.01a1.309,1.309,0,0,0-2.617,0v3.01H56.469V45.994a11.076,11.076,0,0,1,2.617-.639v8.167a1.309,1.309,0,1,0,2.617,0V45.277h3.365l7.1,7.459ZM66.938,43.445V41.008a13.782,13.782,0,0,0,13.086,0v2.437l-6.543,6.87ZM90.492,64.383H87.875v-3.01a1.309,1.309,0,1,0-2.617,0v3.01H74.789V52.736l7.1-7.459h3.365v8.244a1.309,1.309,0,1,0,2.617,0V45.355a11.078,11.078,0,0,1,2.617.639Zm7.852,0H93.109v-17a12.5,12.5,0,0,1,5.234,10.06Z" transform="translate(-46)"/>
      </g>
    </g>
  </g>
</svg>
