<svg xmlns="http://www.w3.org/2000/svg" width="149.333" height="60.248" viewBox="0 0 149.333 60.248">
  <g id="Grupo_2" data-name="Grupo 2" transform="translate(542.324 -227.679)">
    <g id="Grupo_1" data-name="Grupo 1">
      <g id="Camada_x0020_1" transform="translate(-572.994 216)">
        <g id="_38136929248" transform="translate(-0.006)">
          <path id="Caminho_240" data-name="Caminho 240" d="M304.679,250.64a1.482,1.482,0,1,1-1.048.432A1.482,1.482,0,0,1,304.679,250.64Z" transform="translate(-245.087 -216.281)" fill="#fff" fill-rule="evenodd"/>
          <path id="Caminho_241" data-name="Caminho 241" d="M30.127,0A30.122,30.122,0,1,1,2.334,41.8H16.068l1.9,4.807H45.9q.179-.991.288-2.018H23.614l-.807-2.551H46.334v-.223a26.431,26.431,0,0,0-1-7.234A26.21,26.21,0,0,0,42.444,28a9.872,9.872,0,1,1-14.8-11.485,26.341,26.341,0,0,0-3.779-.865,26.944,26.944,0,0,0-3.986-.3q-.972,0-1.924.072c-.628.043-1.253.111-1.874.2v7.332H13.929v-9.2l1.8-.261q1.033-.147,2.07-.226c.691-.051,1.384-.072,2.078-.072a28.489,28.489,0,0,1,13.079,3.159h0q.3.156.592.311c.192.1.387.216.576.325l.216.124-.248-.031c-.16-.02-.316-.035-.478-.045s-.319-.015-.481-.015a7.674,7.674,0,1,0,7.1,4.75l-.1-.231.177.177c.187.187.37.375.552.565s.36.387.537.582l.171.19.162.184c.223.255.432.5.643.744s.414.517.618.807a30.215,30.215,0,0,1,4.077,8.152A28.912,28.912,0,0,1,48.5,41.814c0,.876-.038,1.751-.12,2.622s-.2,1.737-.357,2.6L47.7,48.755H16.5l-1.9-4.8h-8.7A27.75,27.75,0,1,0,3.372,38H1.033A30.147,30.147,0,0,1,30.131,0Z" transform="translate(30.682 11.679)" fill="#fff" fill-rule="evenodd"/>
          <path id="Caminho_242" data-name="Caminho 242" d="M817.854,204.671c-2.932,3.537-2.932,6.1,0,9.774l7.26,8.983a4.343,4.343,0,0,0,4.1,1.955h.838c2,0,2.187-.325.93-1.955l-8.657-10.751c-.884-1.118-1.4-1.816-1.629-2.141a1.616,1.616,0,0,1-.326-.93,1.766,1.766,0,0,1,.327-1.024c.232-.325.744-1.023,1.628-2.094l7.726-9.4c1.3-1.629,1.118-1.955-.93-1.955h-.838a4.387,4.387,0,0,0-4.1,1.955l-6.33,7.587Zm-8.844,18.572c0,1.722.418,2.141,2.141,2.141h.6c1.722,0,2.141-.418,2.141-2.141V197.271c0-1.722-.418-2.141-2.141-2.141h-.6c-1.721,0-2.141.419-2.141,2.141Z" transform="translate(-707.423 -170.628)" fill="#fff"/>
          <path id="Caminho_243" data-name="Caminho 243" d="M1025.93,220.068c0,3.723,1.582,5.307,5.307,5.307h11.31c1.675,0,2.094-.418,2.094-2.094v-.419c0-1.675-.419-2.094-2.094-2.094h-9.914a1.591,1.591,0,0,1-1.816-1.769V197.261c0-1.722-.418-2.141-2.141-2.141h-.6c-1.722,0-2.141.419-2.141,2.141Z" transform="translate(-897.105 -170.619)" fill="#fff"/>
          <g id="Grupo_227" data-name="Grupo 227" transform="translate(151.787 24.491)">
            <path id="Caminho_244" data-name="Caminho 244" d="M1208.79,223.162c0,1.723.419,2.142,2.141,2.142h.6c1.723,0,2.142-.419,2.142-2.142v-25.98c0-1.723-.419-2.142-2.142-2.142h-.6c-1.722,0-2.141.419-2.141,2.142Z" transform="translate(-1208.79 -195.04)" fill="#fff" fill-rule="evenodd"/>
            <path id="Caminho_245" data-name="Caminho 245" d="M1226.379,215.613a2.971,2.971,0,0,1-4.71,0l-10.494-17.489c-.7-1.16-.482-1.566,1.094-2.078l.554-.18c1.576-.512,2.128-.354,2.824.8l8.377,13.959,8.377-13.959c.7-1.16,1.249-1.317,2.825-.8l.554.18c1.576.512,1.789.919,1.094,2.078Z" transform="translate(-1210.546 -195.52)" fill="#fff" fill-rule="evenodd"/>
            <path id="Caminho_246" data-name="Caminho 246" d="M1386.46,223.162c0,1.723.419,2.142,2.141,2.142h.6c1.723,0,2.142-.419,2.142-2.142v-25.98c0-1.723-.419-2.142-2.142-2.142h-.6c-1.722,0-2.141.419-2.141,2.142Z" transform="translate(-1364.15 -195.04)" fill="#fff" fill-rule="evenodd"/>
          </g>
          <path id="Caminho_247" data-name="Caminho 247" d="M830.249,459.171c-.083-1.15-.522-1.59-1.459-1.59-.854,0-1.27.439-1.423,1.59l-.664,4.969c-.048.368-.118.462-.309.462s-.261-.083-.309-.462l-.664-4.969c-.154-1.174-.569-1.59-1.423-1.59-.937,0-1.376.439-1.459,1.59l-.427,5.787c-.011.32.059.4.379.4h.119c.32,0,.392-.072.427-.4l.427-5.87c.035-.51.19-.677.534-.677.3,0,.451.154.534.677l.747,5.171c.107.8.44,1.1,1.115,1.1.723,0,1.008-.3,1.115-1.1l.747-5.171c.083-.51.225-.677.521-.677.368,0,.51.154.546.677l.416,5.87c.035.333.107.4.427.4h.131c.32,0,.392-.083.379-.4Zm9.44,2.087c0-1.246-.83-1.862-2.49-1.862a5.9,5.9,0,0,0-1.281.118c-.285.059-.355.131-.355.4v.1c0,.285.1.355.379.3a5.919,5.919,0,0,1,1.3-.131c1.043,0,1.553.309,1.553,1.079v.712h-1.4c-1.649,0-2.42.51-2.42,1.732,0,1.2.819,1.779,2.229,1.779,1.72,0,2.479-.558,2.479-1.873v-2.348Zm-.889,2.313c0,.854-.462,1.139-1.6,1.139-.889,0-1.328-.332-1.328-1.008,0-.747.462-1.032,1.542-1.032H838.8v.9Zm6.5-2.076c0-.889.3-1.257,1.139-1.257.059,0,.178.013.368.024.3.048.368-.011.368-.309v-.119c0-.3-.059-.379-.355-.416-.142-.011-.273-.024-.379-.024a1.8,1.8,0,0,0-2.028,2.052v3.535c0,.32.083.379.379.379h.131c.32,0,.379-.059.379-.379v-3.487Zm6.332,3.487c0,.32.083.379.379.379h.131c.32,0,.379-.059.379-.379v-7.543c0-.32-.059-.379-.379-.379h-.131c-.3,0-.379.059-.379.379Zm1.767-3.7a1.489,1.489,0,0,0-.486.961,1.541,1.541,0,0,0,.486,1.032l1.59,1.72a.918.918,0,0,0,.843.368h.142c.392,0,.439-.072.154-.368l-2.1-2.265a.677.677,0,0,1-.237-.462.756.756,0,0,1,.249-.451l1.851-1.945c.272-.285.237-.355-.154-.355H855.6a.965.965,0,0,0-.843.355l-1.352,1.411Zm11.812.486a2.152,2.152,0,0,0-2.431-2.372,2.209,2.209,0,0,0-2.5,2.5V463c0,1.743.854,2.479,2.74,2.479a5.524,5.524,0,0,0,1.625-.225c.32-.1.368-.178.368-.427v-.107c0-.3-.094-.392-.379-.309a5.872,5.872,0,0,1-1.614.226c-1.316,0-1.85-.427-1.85-1.507v-.355h3.581c.32,0,.392-.072.427-.368a4.462,4.462,0,0,0,.032-.639Zm-4.043-.131c0-.961.534-1.447,1.6-1.447s1.6.486,1.6,1.447v.392h-3.2Zm8.23-1.6c0,.272.048.32.32.32h.676v3.012q0,2.1,1.993,2.1a4,4,0,0,0,1.032-.118c.285-.083.368-.19.368-.427v-.107c0-.3-.083-.368-.355-.309a3.7,3.7,0,0,1-1.055.119c-.723,0-1.091-.368-1.091-1.257v-3.012H873.2c.3,0,.368-.072.368-.368v-.107c0-.3-.072-.368-.368-.368h-1.921v-1.222c0-.249-.072-.32-.32-.32h-.083c-.273,0-.344.072-.355.32l-.131,1.222-.676.1c-.249.035-.32.1-.32.368v.059Zm8.9,4.946c0,.32.059.379.379.379h.131c.3,0,.379-.059.379-.379v-5.088c0-.3-.083-.379-.379-.379h-.131c-.32,0-.379.083-.379.379Zm.451-7.874a.584.584,0,0,0-.593.581.575.575,0,0,0,.593.569.561.561,0,0,0,.569-.569.572.572,0,0,0-.569-.581Zm6.309,4.507c0-.961.416-1.376,1.59-1.376s1.566.392,1.566,1.376v3.368c0,.32.059.379.379.379h.142c.32,0,.379-.059.379-.379v-3.368c0-1.47-.758-2.218-2.467-2.218-1.649,0-2.479.735-2.479,2.218v3.368c0,.32.083.379.379.379h.131c.32,0,.379-.059.379-.379v-3.368Zm13.674-.166a1.741,1.741,0,0,0-.522-1.328l.534-.546c.19-.19.19-.285,0-.462l-.083-.083c-.19-.178-.285-.178-.486,0l-.677.6a3.111,3.111,0,0,0-1.222-.237c-1.553,0-2.466.758-2.466,2.052v.142a1.674,1.674,0,0,0,1,1.732q-.961.143-.961.925a.807.807,0,0,0,.486.782,1.4,1.4,0,0,0-.664,1.27,1.424,1.424,0,0,0,.557,1.246,3.678,3.678,0,0,0,2.052.4,3.59,3.59,0,0,0,2.017-.4,1.587,1.587,0,0,0,.581-1.411,1.359,1.359,0,0,0-.569-1.257,3.9,3.9,0,0,0-2.028-.368,6.748,6.748,0,0,1-1.246-.072c-.2-.059-.3-.166-.3-.333a.352.352,0,0,1,.285-.355,5.535,5.535,0,0,1,1.257-.1q2.456,0,2.455-2.063v-.142Zm-.9.142c0,.889-.4,1.281-1.553,1.281s-1.577-.392-1.577-1.281v-.142c0-.841.522-1.257,1.577-1.257,1.032,0,1.553.416,1.553,1.257Zm-1.553,3.7a3.752,3.752,0,0,1,1.352.166.7.7,0,0,1,.355.712c0,.8-.439,1.008-1.708,1.008-1.292,0-1.719-.213-1.719-.972a1,1,0,0,1,.557-.973,9.939,9.939,0,0,0,1.162.059Z" transform="translate(-718.879 -399.668)" fill="#fff"/>
        </g>
      </g>
    </g>
  </g>
</svg>
