<svg id="Camada_1" data-name="Camada 1" xmlns="http://www.w3.org/2000/svg" viewBox="0 0 16.69 16.69">
  <defs>
    <style>
      .cls-1 {
        fill: #fff;
      }
    </style>
  </defs>
  <path id="Path_23" data-name="Path 23" class="cls-1" d="M15.135,11.469a3.667,3.667,0,0,1-3.667,3.667H5.221a3.667,3.667,0,0,1-3.667-3.667V5.221A3.667,3.667,0,0,1,5.221,1.555h6.248a3.667,3.667,0,0,1,3.667,3.667ZM11.469,0H5.221A5.221,5.221,0,0,0,0,5.221v6.248A5.221,5.221,0,0,0,5.221,16.69h6.248a5.192,5.192,0,0,0,5.221-5.221V5.221A5.221,5.221,0,0,0,11.469,0Z"/>
  <path id="Path_24" data-name="Path 24" class="cls-1" d="M5.506,8.187A2.612,2.612,0,1,1,8.19,5.65,2.612,2.612,0,0,1,5.506,8.187Zm.205-6.776A4.165,4.165,0,1,0,9.759,5.694,4.165,4.165,0,0,0,5.711,1.411Z" transform="translate(2.766 2.725)"/>
  <path id="Path_25" data-name="Path 25" class="cls-1" d="M4.748.88a.587.587,0,0,1,.557.557.557.557,0,0,1-.557.557.528.528,0,0,1-.557-.557A.557.557,0,0,1,4.748.88Z" transform="translate(8.1 1.701)"/>
</svg>
