<svg xmlns="http://www.w3.org/2000/svg" viewBox="0 0 172.835 44.656">
  <defs>
    <style>
      .cls-1, .cls-2 {
        fill: #fff;
      }

      .cls-2 {
        fill-rule: evenodd;
      }
    </style>
  </defs>
  <g id="logo" transform="translate(4 -2)">
    <path id="Path_1" data-name="Path 1" class="cls-1" d="M2.116,9.02h0a.409.409,0,0,1,.111-.334c0-.111.111-.111.223-.111h0l8.464-3.007h0l8.018-3.007h0A8.783,8.783,0,0,1,22.273,2a11.664,11.664,0,0,1,3.341.557h0l8.129,3.007h0l8.575,3.007h0c.111,0,.111.111.223.111,0,.111.111.111.111.223h0c0,.111,0,.111-.111.223,0,.111-.111.111-.223.111L33.854,12.25h0l-8.129,3.007a8.686,8.686,0,0,1-6.682,0L10.914,12.25h0l-8.575-2.9c0-.111-.111-.111-.111-.223a.109.109,0,0,1-.111-.111M0,9.02V17.6H0a1,1,0,1,0,2,0H2V11.248l8.018,2.9h0l8.129,3.007a14.584,14.584,0,0,0,3.007.668V42.541a8.169,8.169,0,0,1-2.227-.557L10.8,38.977h0L2.339,35.97c-.111,0-.111-.111-.223-.111V29.4h0a1,1,0,0,0-1-1c-.557,0-1.114.445-1,1h0v6.459h0a1.658,1.658,0,0,0,.445,1,3.49,3.49,0,0,0,1.225.891l8.241,3.118h0l8.129,3.007a13.472,13.472,0,0,0,4.12.78,10.813,10.813,0,0,0,4.12-.78l8.129-3.007h0l8.464-3.007a3.158,3.158,0,0,0,1.225-.891,3.956,3.956,0,0,0,.445-1h0V29.511h0a1,1,0,0,0-1-1c-.557,0-1.114.445-1,1h0V35.97c0,.111-.111.111-.223.111l-8.464,3.007h0L25.836,42.1a16.28,16.28,0,0,1-2.227.557V17.818h0a14.584,14.584,0,0,0,3.007-.668l8.129-3.007h0l7.907-2.9V17.6h0a1,1,0,0,0,2,0h0V8.464c0-.223-.111-.334-.223-.557,0-.111-.111-.223-.223-.334a3.49,3.49,0,0,0-1.225-.891h0L34.522,3.675h0L26.393.668h0A12.612,12.612,0,0,0,22.384,0a10.813,10.813,0,0,0-4.12.78h0l-8.241,2.9h0L1.559,6.793h0a2.042,2.042,0,0,0-1.114.78A2.238,2.238,0,0,0,0,9.02Z" transform="translate(-4 2)"/>
    <path id="Path_2" data-name="Path 2" class="cls-1" d="M45.4,34.5h3.9v.668H46.18v2h2.9v.668h-2.9v2.227H49.52v.668H45.4Z" transform="translate(5.613 3.693)"/>
    <path id="Path_3" data-name="Path 3" class="cls-1" d="M57.4,37.425v-1h.668v.668h0c0-.111.111-.223.223-.334s.223-.223.334-.223c.111-.111.223-.111.445-.223.111,0,.334-.111.445-.111.223,0,.557,0,.668.111a1.537,1.537,0,0,1,.445.334,2.434,2.434,0,0,1,.334.557,1.412,1.412,0,0,1,.111.668v2.561H60.3v-2.45a1.3,1.3,0,0,0-.223-.78.673.673,0,0,0-.668-.334.835.835,0,0,0-.557.111c-.111.111-.334.223-.445.334a.844.844,0,0,0-.223.445c0,.223-.111.445-.111.668v2H57.4Z" transform="translate(6.977 3.886)"/>
    <path id="Path_4" data-name="Path 4" class="cls-1" d="M69.768,38.416a.835.835,0,0,0,.111.557,1.537,1.537,0,0,0,.334.445c.111.111.334.223.445.334a1,1,0,0,0,.557.111,1.412,1.412,0,0,0,.668-.111,1.537,1.537,0,0,0,.445-.334c.111-.111.223-.334.334-.445a1,1,0,0,0,.111-.557.834.834,0,0,0-.111-.557,1.537,1.537,0,0,0-.334-.445c-.111-.111-.334-.223-.445-.334a1,1,0,0,0-.557-.111.835.835,0,0,0-.557.111,1.537,1.537,0,0,0-.445.334c-.111.111-.223.334-.334.445a.613.613,0,0,0-.223.557m3.564,1.893A1.969,1.969,0,0,1,71.1,42.536a3.3,3.3,0,0,1-1.114-.223,2.425,2.425,0,0,1-.891-.557l.445-.557a2.952,2.952,0,0,0,.668.557,2.1,2.1,0,0,0,.891.223,1.651,1.651,0,0,0,.78-.111,1.537,1.537,0,0,0,.445-.334.851.851,0,0,0,.223-.557c0-.223.111-.445.111-.668v-.557h0a1.141,1.141,0,0,1-.668.557,2.065,2.065,0,0,1-.78.223,2.171,2.171,0,0,1-.891-.111,2.047,2.047,0,0,1-1.114-1.114,3.619,3.619,0,0,1,0-1.782,2.047,2.047,0,0,1,1.114-1.114,2.171,2.171,0,0,1,.891-.111h.445c.111,0,.223.111.445.111.111.111.223.111.334.223s.223.223.223.334h0V36.3h.668Z" transform="translate(8.306 3.897)"/>
    <path id="Path_5" data-name="Path 5" class="cls-1" d="M84.641,38.082a1.261,1.261,0,0,0-2.116-.891,1.677,1.677,0,0,0-.445.891Zm.557,1.67a2.087,2.087,0,0,1-.78.668,3.252,3.252,0,0,1-1,.223,2.621,2.621,0,0,1-.891-.223,2.047,2.047,0,0,1-1.114-1.114,2.171,2.171,0,0,1-.111-.891,2.452,2.452,0,0,1,.111-.891,2.047,2.047,0,0,1,1.114-1.114,2.171,2.171,0,0,1,.891-.111,1.651,1.651,0,0,1,.78.111,2.047,2.047,0,0,1,1.114,1.114,2.171,2.171,0,0,1,.111.891v.223H82.08a1,1,0,0,0,.111.557c.111.111.223.334.334.445a1.537,1.537,0,0,0,.445.334.835.835,0,0,0,.557.111,1.651,1.651,0,0,0,.78-.111,1.955,1.955,0,0,0,.557-.445Z" transform="translate(9.692 3.897)"/>
    <path id="Path_6" data-name="Path 6" class="cls-1" d="M93.3,37.425v-1h.668v.668h0c0-.111.111-.223.223-.334s.223-.223.334-.223c.111-.111.223-.111.445-.223.111,0,.334-.111.445-.111.223,0,.557,0,.668.111a1.537,1.537,0,0,1,.445.334,2.435,2.435,0,0,1,.334.557,1.412,1.412,0,0,1,.111.668v2.561h-.668v-2.45a1.3,1.3,0,0,0-.223-.78.673.673,0,0,0-.668-.334.835.835,0,0,0-.557.111c-.111.111-.334.223-.445.334a.844.844,0,0,0-.223.445c0,.223-.111.445-.111.668v2h-.668V37.425Z" transform="translate(11.056 3.886)"/>
    <path id="Path_7" data-name="Path 7" class="cls-1" d="M105.1,34.1h.668v3.118h0c0-.111.111-.111.223-.223s.223-.111.334-.223a.409.409,0,0,1,.334-.111c.111,0,.334-.111.445-.111.223,0,.557,0,.668.111a1.537,1.537,0,0,1,.445.334,2.435,2.435,0,0,1,.334.557,1.413,1.413,0,0,1,.111.668v2.561H108v-2.45a1.3,1.3,0,0,0-.223-.78.673.673,0,0,0-.668-.334.835.835,0,0,0-.557.111c-.111.111-.334.223-.445.334a.844.844,0,0,0-.223.445c0,.223-.111.445-.111.668v2H105.1V34.1Z" transform="translate(12.397 3.647)"/>
    <path id="Path_8" data-name="Path 8" class="cls-1" d="M118.9,38.516a2.224,2.224,0,0,0-1,.223.612.612,0,0,0-.334.557.851.851,0,0,0,.223.557,1.206,1.206,0,0,0,.668.111,1,1,0,0,0,.557-.111c.111-.111.223-.111.334-.223a.579.579,0,0,0,.223-.445c0-.111.111-.334.111-.445v-.223h-.78Zm-2-1.559a1.8,1.8,0,0,1,.78-.445,2.452,2.452,0,0,1,.891-.111,1.775,1.775,0,0,1,1.336.445,2.112,2.112,0,0,1,.445,1.336v2.45h-.668v-.668h0c-.111.223-.334.334-.557.557a1.61,1.61,0,0,1-.78.223.835.835,0,0,1-.557-.111.579.579,0,0,1-.445-.223l-.334-.334a.834.834,0,0,1-.111-.557,1.609,1.609,0,0,1,.223-.78,2.33,2.33,0,0,1,.668-.445c.223-.111.557-.111.891-.223h1v-.111a.941.941,0,0,0-.223-.668,1.61,1.61,0,0,0-.78-.223,1.412,1.412,0,0,0-.668.111,2.434,2.434,0,0,0-.557.334Z" transform="translate(13.738 3.909)"/>
    <path id="Path_9" data-name="Path 9" class="cls-1" d="M128.5,37.425v-1h.668v.668h0c0-.111.111-.223.223-.334s.223-.223.334-.223c.111-.111.223-.111.445-.223.111,0,.334-.111.445-.111h.223v.668H130.5c-.445,0-.78.111-.891.445a1.663,1.663,0,0,0-.334,1.114v2h-.668V37.425Z" transform="translate(15.056 3.886)"/>
    <path id="Path_10" data-name="Path 10" class="cls-1" d="M138.6,35.045a.394.394,0,1,1,.111.334c0-.111-.111-.223-.111-.334m.223,1.559h.668v4.12h-.668Z" transform="translate(16.203 3.704)"/>
    <path id="Path_11" data-name="Path 11" class="cls-1" d="M150,38.516a2.224,2.224,0,0,0-1,.223.612.612,0,0,0-.334.557.851.851,0,0,0,.223.557,1.206,1.206,0,0,0,.668.111,1,1,0,0,0,.557-.111c.111-.111.223-.111.334-.223a.579.579,0,0,0,.223-.445c0-.111.111-.334.111-.445v-.223H150Zm-2-1.559a1.8,1.8,0,0,1,.78-.445,2.452,2.452,0,0,1,.891-.111,1.775,1.775,0,0,1,1.336.445,2.112,2.112,0,0,1,.445,1.336v2.45h-.668v-.668h0c-.111.223-.334.334-.557.557a1.61,1.61,0,0,1-.78.223.835.835,0,0,1-.557-.111.579.579,0,0,1-.445-.223l-.334-.334a.834.834,0,0,1-.111-.557,1.61,1.61,0,0,1,.223-.78,2.33,2.33,0,0,1,.668-.445c.223-.111.557-.111.891-.223h1v-.111a.941.941,0,0,0-.223-.668,1.61,1.61,0,0,0-.78-.223,1.413,1.413,0,0,0-.668.111,2.435,2.435,0,0,0-.557.334Z" transform="translate(17.271 3.909)"/>
    <path id="Path_12" data-name="Path 12" class="cls-2" d="M91.37,32.507H71.436A1.354,1.354,0,0,1,70.1,31.17V11.236A1.354,1.354,0,0,1,71.436,9.9h2.9a1.354,1.354,0,0,1,1.336,1.336V25.491h0A1.287,1.287,0,0,0,77,26.827h8.686a1.437,1.437,0,0,0,1.336-1.336h0V11.236A1.354,1.354,0,0,1,88.363,9.9h2.9A1.354,1.354,0,0,1,92.6,11.236V31.17a1.147,1.147,0,0,1-1.225,1.336" transform="translate(8.42 0.898)"/>
    <path id="Path_13" data-name="Path 13" class="cls-2" d="M101.18,26.07h0V17.384a1.236,1.236,0,0,1,1.225-1.225h8.686a1.287,1.287,0,0,1,1.336,1.336v8.686a1.437,1.437,0,0,1-1.336,1.336h-8.575a1.453,1.453,0,0,1-1.336-1.448ZM96.836,4.8h2.9a1.354,1.354,0,0,1,1.336,1.336V9.143h0a1.354,1.354,0,0,0,1.336,1.336h14.254A1.354,1.354,0,0,1,118,11.816V31.75a1.354,1.354,0,0,1-1.336,1.336H96.836A1.354,1.354,0,0,1,95.5,31.75V6.248A1.381,1.381,0,0,1,96.836,4.8Z" transform="translate(11.306 0.318)"/>
    <path id="Path_14" data-name="Path 14" class="cls-2" d="M44.7,31.17V11.236A1.354,1.354,0,0,1,46.036,9.9H65.859A1.354,1.354,0,0,1,67.2,11.236v5.457a1.287,1.287,0,0,1-1.336,1.336h-2.9a1.287,1.287,0,0,1-1.336-1.336V15.58H51.6a1.287,1.287,0,0,0-1.336,1.336V25.6A1.437,1.437,0,0,0,51.6,26.939H61.739V26.27a1.287,1.287,0,0,1,1.336-1.336h2.9a1.287,1.287,0,0,1,1.336,1.336v2.9a1,1,0,0,1-.111.557V31.17a1.354,1.354,0,0,1-1.336,1.336H46.148A1.381,1.381,0,0,1,44.7,31.17" transform="translate(5.534 0.898)"/>
    <path id="Path_15" data-name="Path 15" class="cls-2" d="M122.236,9.9h2.9a1.354,1.354,0,0,1,1.336,1.336V31.17a1.354,1.354,0,0,1-1.336,1.336h-2.9A1.354,1.354,0,0,1,120.9,31.17V11.236A1.354,1.354,0,0,1,122.236,9.9" transform="translate(14.192 0.898)"/>
    <path id="Path_16" data-name="Path 16" class="cls-2" d="M131,31.17V11.236A1.354,1.354,0,0,1,132.336,9.9h19.823a1.354,1.354,0,0,1,1.336,1.336v5.457a1.287,1.287,0,0,1-1.336,1.336h-2.9a1.287,1.287,0,0,1-1.336-1.336V15.58H137.9a1.287,1.287,0,0,0-1.336,1.336V25.6a1.437,1.437,0,0,0,1.336,1.336h10.023V26.27a1.287,1.287,0,0,1,1.336-1.336h2.9A1.287,1.287,0,0,1,153.5,26.27v4.9a1.354,1.354,0,0,1-1.336,1.336H132.336A1.354,1.354,0,0,1,131,31.17" transform="translate(15.34 0.898)"/>
  </g>
</svg>
