<svg xmlns="http://www.w3.org/2000/svg" viewBox="0 0 161.746 164.254">
  <defs>
    <style>
      .cls-1 {
        fill-rule: evenodd;
      }
    </style>
  </defs>
  <g id="Group_72" data-name="Group 72" transform="translate(0 -0.1)">
    <path id="Path_45" data-name="Path 45" class="cls-1" d="M41.352,67.733H14.081A2.023,2.023,0,0,1,12.2,65.852V38.581A2.023,2.023,0,0,1,14.081,36.7h4.075a2.023,2.023,0,0,1,1.881,1.881V58.015h0A1.807,1.807,0,0,0,21.917,59.9H33.829a2.023,2.023,0,0,0,1.881-1.881h0V38.581A2.023,2.023,0,0,1,37.59,36.7h4.075a2.023,2.023,0,0,1,1.881,1.881V65.852a2.689,2.689,0,0,1-2.194,1.881" transform="translate(26.042 78.127)"/>
    <path id="Path_46" data-name="Path 46" class="cls-1" d="M32.337,63.452h0V51.54A1.481,1.481,0,0,1,33.9,49.973H45.815A1.807,1.807,0,0,1,47.7,51.854V63.765a2.023,2.023,0,0,1-1.881,1.881h-11.6a2.29,2.29,0,0,1-1.881-2.194ZM26.381,34.3h4.075a2.023,2.023,0,0,1,1.881,1.881v4.075h0a2.023,2.023,0,0,0,1.881,1.881H53.652a2.023,2.023,0,0,1,1.881,1.881V70.975a2.023,2.023,0,0,1-1.881,1.881H26.381A2.023,2.023,0,0,1,24.5,70.975V35.867A2.033,2.033,0,0,1,26.381,34.3Z" transform="translate(52.298 73.004)"/>
    <path id="Path_47" data-name="Path 47" class="cls-1" d="M0,65.852V38.581A2.023,2.023,0,0,1,1.881,36.7H29.152a2.023,2.023,0,0,1,1.881,1.881v7.21a2.023,2.023,0,0,1-1.881,1.881H25.077A2.023,2.023,0,0,1,23.2,45.79V44.223H9.4A1.807,1.807,0,0,0,7.523,46.1V58.015A2.023,2.023,0,0,0,9.4,59.9H23.2v-.94a2.023,2.023,0,0,1,1.881-1.881h4.075a2.023,2.023,0,0,1,1.881,1.881v6.9a2.023,2.023,0,0,1-1.881,1.881H1.881A2.023,2.023,0,0,1,0,65.852" transform="translate(0 78.127)"/>
    <path id="Path_48" data-name="Path 48" class="cls-1" d="M38.681,36.8h4.075a2.023,2.023,0,0,1,1.881,1.881V65.639a2.023,2.023,0,0,1-1.881,1.881H38.681A2.023,2.023,0,0,1,36.8,65.639V38.681A2.023,2.023,0,0,1,38.681,36.8" transform="translate(78.554 78.341)"/>
    <path id="Path_49" data-name="Path 49" class="cls-1" d="M41.7,65.852V38.581A2.023,2.023,0,0,1,43.581,36.7H70.852a2.023,2.023,0,0,1,1.881,1.881v7.21a2.023,2.023,0,0,1-1.881,1.881H66.777A2.023,2.023,0,0,1,64.9,45.79V44.223H51.417A1.807,1.807,0,0,0,49.537,46.1V58.015A2.023,2.023,0,0,0,51.417,59.9H64.9v-.94a2.023,2.023,0,0,1,1.881-1.881h4.075a2.023,2.023,0,0,1,1.881,1.881v6.9a2.023,2.023,0,0,1-1.881,1.881H43.581A2.023,2.023,0,0,1,41.7,65.852" transform="translate(89.014 78.127)"/>
    <path id="Path_50" data-name="Path 50" d="M14.5,19.848h0v-.627l.313-.313h0l18.808-6.9h0L51.8,5.429h0a21.072,21.072,0,0,1,7.523-1.254A21.072,21.072,0,0,1,66.85,5.429h0l18.808,6.583h0l18.808,6.9h0a.307.307,0,0,1,.313.313v.627h0v.627l-.313.313-18.808,6.9h0L67.477,34.267a21.072,21.072,0,0,1-7.523,1.254,21.072,21.072,0,0,1-7.523-1.254L34.25,27.685h0l-18.808-6.9a.307.307,0,0,1-.313-.313c-.627-.313-.627-.313-.627-.627m-4.7,0V38.969h0a2.236,2.236,0,0,0,2.508,2.194,2.423,2.423,0,0,0,2.508-2.194h0V24.864l17.867,6.269h0l18.181,6.583a25.134,25.134,0,0,0,6.583,1.567V94.766a29.349,29.349,0,0,1-5.015-1.254L34.25,86.929h0l-18.808-6.9a.307.307,0,0,1-.313-.313V65.614h0a2.236,2.236,0,0,0-2.508-2.194,2.423,2.423,0,0,0-2.508,2.194h0V80.033h0a2.846,2.846,0,0,0,.94,2.194,4.875,4.875,0,0,0,2.508,1.881L32.369,91h0L50.55,97.587a24.721,24.721,0,0,0,9.4,1.567,32.831,32.831,0,0,0,9.4-1.567L87.539,91h0l18.808-6.9a3.893,3.893,0,0,0,2.508-1.881,3.386,3.386,0,0,0,.94-2.194h0V65.614h0a2.236,2.236,0,0,0-2.508-2.194,2.423,2.423,0,0,0-2.508,2.194h0V80.033l-.313.313-18.808,6.9h0L67.477,93.825a29.348,29.348,0,0,1-5.015,1.254V39.6h0a25.134,25.134,0,0,0,6.583-1.567l18.181-6.583h0l17.867-6.269V39.283h0a2.236,2.236,0,0,0,2.508,2.194,2.423,2.423,0,0,0,2.508-2.194h0V18.908c0-.313-.313-.94-.313-1.254s-.313-.313-.313-.627a4.875,4.875,0,0,0-2.508-1.881h0L88.166,8.25h0L69.985,1.667h0A24.722,24.722,0,0,0,60.581.1a32.83,32.83,0,0,0-9.4,1.567h0L32.369,7.937h0l-18.808,6.9h0a4.875,4.875,0,0,0-2.508,1.881A4.491,4.491,0,0,0,9.8,19.848Z" transform="translate(20.919 0)"/>
    <path id="Path_51" data-name="Path 51" d="M.1,48.8H5.429v.94H1.04v2.821H5.115v.94H1.04v2.821h4.7v.94H.1Z" transform="translate(0.213 103.956)"/>
    <path id="Path_52" data-name="Path 52" d="M6,51.267V50.013h.94v.627h0a.307.307,0,0,1,.313-.313l.313-.313c.313,0,.313-.313.627-.313h.627a1.152,1.152,0,0,1,.94.313,1.094,1.094,0,0,1,.627.313c0,.313,0,.313.313.627v4.388h-.94V51.894c0-.627,0-.94-.313-1.254H7.567c-.313,0-.313.313-.627.313,0,.313-.313.313-.313.627v3.762H6Z" transform="translate(12.808 105.877)"/>
    <path id="Path_53" data-name="Path 53" d="M12.967,52.735v.94c0,.313.313.313.313.627.313.313.313.313.627.313h.627a1.152,1.152,0,0,0,.94-.313c.313,0,.313-.313.627-.313.313-.313.313-.313.313-.627V51.794c0-.313-.313-.313-.313-.627-.313-.313-.313-.313-.627-.313h-.94a1.152,1.152,0,0,0-.94.313c-.313,0-.313.313-.627.313.313,0,.313.313.313.627-.313.313-.313.313-.313.627m5.015,2.821a2.44,2.44,0,0,1-.94,2.194,2.846,2.846,0,0,1-2.194.94,2.826,2.826,0,0,1-1.567-.313c-.313-.313-.94-.313-1.254-.94l.627-.627c.313.313.627.627.94.627.313.313.627.313,1.254.313a1.152,1.152,0,0,0,.94-.313.674.674,0,0,0,.627-.627c.313-.313.313-.313.313-.627V54.615h0l-.94.94c-.313.313-.627.313-1.254.313a1.885,1.885,0,0,1-1.254-.313c-.313,0-.627-.313-.94-.627s-.313-.627-.627-.94c0-.313-.313-.627-.313-1.254a1.885,1.885,0,0,1,.313-1.254c0-.313.313-.627.627-.94s.627-.313.94-.627c.313,0,.627-.313,1.254-.313h.627c.313,0,.313,0,.627.313.313,0,.313.313.627.313a1.094,1.094,0,0,1,.313.627h0v-.94h.94v5.642Z" transform="translate(24.335 105.664)"/>
    <path id="Path_54" data-name="Path 54" d="M22.2,52.421c0-.627-.313-.94-.313-1.254a1.885,1.885,0,0,0-1.254-.313c-.627,0-.94,0-1.254.313a1.629,1.629,0,0,0-.627,1.254Zm.94,2.194a4.327,4.327,0,0,1-1.254.94,1.885,1.885,0,0,1-1.254.313,1.885,1.885,0,0,1-1.254-.313c-.313,0-.627-.313-.94-.627s-.313-.627-.627-.94c0-.313-.313-.627-.313-1.254a1.885,1.885,0,0,1,.313-1.254c0-.313.313-.627.627-.94s.627-.313.94-.627c.313,0,.627-.313,1.254-.313a1.152,1.152,0,0,1,.94.313c.313,0,.627.313.94.627s.313.627.627.94c0,.313.313.627.313,1.254v.313H19.067c0,.313,0,.627.313.627,0,.313.313.313.313.627.313.313.313.313.627.313h.627a1.152,1.152,0,0,0,.94-.313.674.674,0,0,0,.627-.627Z" transform="translate(37.356 105.664)"/>
    <path id="Path_55" data-name="Path 55" d="M23.4,51.267V50.013h.94v.627h0a.307.307,0,0,1,.313-.313l.313-.313c.313,0,.313-.313.627-.313h.627a1.152,1.152,0,0,1,.94.313,1.094,1.094,0,0,1,.627.313c.313.313.313.313.313.627v4.388h-.94V51.894c0-.627,0-.94-.313-1.254H25.281c-.313,0-.313.313-.627.313,0,.313-.313.313-.313.627v3.762H23.4Z" transform="translate(49.95 105.877)"/>
    <path id="Path_56" data-name="Path 56" d="M29.413,48.6h.94v4.388h0a.307.307,0,0,1,.313-.313l.313-.313a1.094,1.094,0,0,1,.627-.313h.627a1.152,1.152,0,0,1,.94.313,1.094,1.094,0,0,1,.627.313c.313.313.313.313.313.627V57.69h-.94V54.242c0-.627,0-.94-.313-1.254H30.981c-.313,0-.313.313-.627.313,0,.313-.313.313-.313.627V57.69H29.1V48.6Z" transform="translate(62.117 103.529)"/>
    <path id="Path_57" data-name="Path 57" d="M37.935,52.835a2.826,2.826,0,0,0-1.567.313c-.627.313-.627.313-.627.94,0,.313,0,.627.313.627s.627.313.94.313h.627c.313,0,.313-.313.627-.313a1.094,1.094,0,0,0,.313-.627v-.94h-.627ZM35.113,50.64c.313-.313.627-.627.94-.627s.94-.313,1.254-.313a2.217,2.217,0,0,1,2.508,2.508v3.762h-.94v-.627h0c-.313.313-.313.627-.627.627-.313.313-.627.313-1.254.313h-.94a1.094,1.094,0,0,1-.627-.313c-.313,0-.313-.313-.313-.627s-.313-.313-.313-.627,0-.94.313-.94c.313-.313.627-.313.94-.627.313,0,.627-.313,1.254-.313h1.567v-.313a1.152,1.152,0,0,0-.313-.94c-.313-.94-.627-.94-1.254-.94h-.94a1.094,1.094,0,0,0-.627.313Z" transform="translate(74.285 105.877)"/>
    <path id="Path_58" data-name="Path 58" d="M40.5,51.267V50.013h.94v.627h0a.307.307,0,0,1,.313-.313l.313-.313c.313,0,.313-.313.627-.313h1.254v.94h-.627a1.629,1.629,0,0,0-1.254.627,2.349,2.349,0,0,0-.313,1.567v2.821h-.94V51.267Z" transform="translate(86.452 105.877)"/>
    <path id="Path_59" data-name="Path 59" d="M45.5,49.64c0-.313,0-.313.313-.627a1.094,1.094,0,0,1,.627-.313c.313,0,.313,0,.627.313a1.094,1.094,0,0,1,.313.627c0,.313,0,.313-.313.627a1.094,1.094,0,0,1-.627.313c-.313,0-.313,0-.627-.313-.313,0-.313-.313-.313-.627m0,2.194h.94v5.642H45.5Z" transform="translate(97.125 103.743)"/>
    <path id="Path_60" data-name="Path 60" d="M53.035,52.835a2.826,2.826,0,0,0-1.567.313c-.313.313-.627.313-.627.94,0,.313,0,.627.313.627s.627.313.94.313h.627c.313,0,.313-.313.627-.313a1.094,1.094,0,0,0,.313-.627v-.94h-.627ZM50.213,50.64c.313-.313.627-.627.94-.627s.94-.313,1.254-.313a2.217,2.217,0,0,1,2.508,2.508v3.762h-.94v-.627h0c-.313.313-.313.627-.627.627-.313.313-.627.313-1.254.313h-.94a1.094,1.094,0,0,1-.627-.313c-.313,0-.313-.313-.313-.627s-.313-.313-.313-.627,0-.94.313-.94c.313-.313.627-.313.94-.627.313,0,.627-.313,1.254-.313h1.567v-.313a1.152,1.152,0,0,0-.313-.94c-.313-.94-.627-.94-1.254-.94h-.94a1.094,1.094,0,0,0-.627.313Z" transform="translate(106.518 105.877)"/>
  </g>
</svg>
